
<svg xmlns="http://www.w3.org/2000/svg" xml:space="preserve" width="151px" height="265px" version="1.0" style="shape-rendering:geometricPrecision; text-rendering:geometricPrecision; image-rendering:optimizeQuality; fill-rule:evenodd; clip-rule:evenodd"
viewBox="0 0 19.97 34.92"
 >
   <path fill="black" fill-rule="nonzero" d="M0 30.75l0 -1.71c0,-1.45 0.18,-2.6 0.55,-3.46 0.37,-0.84 1.13,-1.87 2.29,-3.1l2.97 -3.13c0.94,-1.01 1.41,-1.66 1.41,-1.96 0,-0.33 -0.57,-1.07 -1.73,-2.24l-2.97 -3.06c-1,-1.02 -1.68,-1.96 -2.01,-2.83 -0.34,-0.87 -0.51,-2.07 -0.51,-3.6l0 -1.84c0,-1.27 0.84,-2.22 2.5,-2.86 1.66,-0.64 4.16,-0.96 7.49,-0.96 6.65,0 9.98,1.27 9.98,3.82l0 1.84c0,1.53 -0.17,2.73 -0.51,3.6 -0.33,0.87 -1,1.81 -2.01,2.83l-2.96 3.06c-1.13,1.17 -1.7,1.91 -1.7,2.24 0,0.3 0.46,0.95 1.39,1.96l2.96 3.13c1.16,1.23 1.92,2.26 2.28,3.1 0.37,0.86 0.55,2.01 0.55,3.46l0 1.71c0,1.38 -0.84,2.41 -2.54,3.12 -1.69,0.7 -4.18,1.05 -7.44,1.05 -3.27,0 -5.76,-0.35 -7.45,-1.05 -1.7,-0.71 -2.54,-1.74 -2.54,-3.12zm9.98 -25.5c2.07,0 3.99,-0.23 5.74,-0.69 1.75,-0.47 2.62,-0.97 2.59,-1.51 -0.03,-0.55 -0.84,-1.01 -2.42,-1.39 -1.59,-0.37 -3.55,-0.56 -5.91,-0.56 -2.37,0 -4.35,0.2 -5.94,0.57 -1.59,0.39 -2.38,0.86 -2.38,1.43 0,0.52 0.88,1.01 2.64,1.46 1.77,0.46 3.65,0.69 5.68,0.69zm-8.88 -0.86l0 2.17c0,1.02 0.16,1.82 0.46,2.39 0.3,0.56 1.07,1.51 2.31,2.84l2.55 2.7c1.27,1.39 1.91,2.37 1.91,2.94 0,0.58 -0.58,1.51 -1.76,2.77l-2.92 3.12c-1.14,1.21 -1.86,2.13 -2.13,2.72 -0.28,0.6 -0.42,1.51 -0.42,2.72l0 1.62c0,0.98 0.36,1.65 1.06,2.02 1.73,0.95 4.34,1.42 7.83,1.42 3.5,0 6.11,-0.47 7.82,-1.42 0.7,-0.37 1.06,-1.04 1.06,-2.02l0 -1.62c0,-1.21 -0.14,-2.12 -0.42,-2.72 -0.27,-0.59 -0.98,-1.51 -2.12,-2.72l-2.9 -3.12c-1.16,-1.26 -1.74,-2.22 -1.74,-2.86 0,-0.51 0.64,-1.46 1.92,-2.85l2.5 -2.7c1.24,-1.33 2.01,-2.28 2.31,-2.84 0.3,-0.57 0.45,-1.37 0.45,-2.39l0 -2.17c-2.06,1.31 -5.02,1.96 -8.88,1.96 -1.94,0 -3.64,-0.16 -5.12,-0.49 -1.47,-0.33 -2.73,-0.82 -3.77,-1.47zm2.38 4.45c2.23,1.41 4.39,2.11 6.51,2.11 2.11,0 4.29,-0.7 6.52,-2.11 -0.37,0.61 -1.19,1.6 -2.47,2.97l-1.85 2.05c-0.84,0.91 -1.35,1.55 -1.53,1.9 -0.18,0.35 -0.33,1.02 -0.45,2.01 -0.03,0.3 -0.09,0.75 -0.2,1.35 -0.11,-0.6 -0.18,-1.05 -0.21,-1.35 -0.11,-0.99 -0.27,-1.66 -0.44,-2.01 -0.19,-0.35 -0.7,-0.99 -1.55,-1.9l-1.87 -2.05c-1.28,-1.37 -2.1,-2.36 -2.46,-2.97zm-1.26 21.97c0.24,-0.9 1.15,-1.75 2.71,-2.56l1.99 -1.02c1.25,-0.64 1.99,-1.07 2.24,-1.3 0.25,-0.22 0.53,-0.72 0.85,-1.5 0.33,0.78 0.61,1.28 0.85,1.5 0.24,0.23 0.98,0.66 2.22,1.3l1.97 1.02c1.56,0.81 2.46,1.66 2.7,2.56 -1.91,0.96 -4.5,1.45 -7.76,1.45 -3.28,0 -5.86,-0.49 -7.77,-1.45z"/>

</svg>
